<svg xmlns="http://www.w3.org/2000/svg" width="960" height="540" viewBox="0 0 960 540" role="img" aria-label="Fundamental Line Prediction chart 2026 to 2035">
  <rect width="100%" height="100%" fill="#ffffff" />
  <text x="80" y="26" font-size="20" font-weight="700">AI Infrastructure Fundamental Line Prediction</text>
  <text x="80" y="48" font-size="13" fill="#4b5563">2035 divergence: 0.9% · signal: neutral</text>
  <line x1="80" x2="80" y1="45" y2="460" stroke="#374151" />
  <line x1="80" x2="920" y1="460" y2="460" stroke="#374151" />
  <line x1="80" x2="920" y1="460.0" y2="460.0" stroke="#e5e7eb" /><text x="70" y="464.0" text-anchor="end" font-size="12">0</text><line x1="80" x2="920" y1="356.2" y2="356.2" stroke="#e5e7eb" /><text x="70" y="360.2" text-anchor="end" font-size="12">27</text><line x1="80" x2="920" y1="252.5" y2="252.5" stroke="#e5e7eb" /><text x="70" y="256.5" text-anchor="end" font-size="12">55</text><line x1="80" x2="920" y1="148.8" y2="148.8" stroke="#e5e7eb" /><text x="70" y="152.8" text-anchor="end" font-size="12">82</text><line x1="80" x2="920" y1="45.0" y2="45.0" stroke="#e5e7eb" /><text x="70" y="49.0" text-anchor="end" font-size="12">110</text>
  <polyline fill="none" stroke="#2563eb" stroke-width="3" points="80.0,395.7 173.3,378.3 266.7,355.9 360.0,331.3 453.3,304.5 546.7,275.5 640.0,240.0 733.3,202.0 826.7,161.4 920.0,118.1" /><polyline fill="none" stroke="#16a34a" stroke-width="3" stroke-dasharray="4 4" points="80.0,349.6 173.3,326.0 266.7,296.2 360.0,263.8 453.3,228.6 546.7,190.9 640.0,145.3 733.3,119.6 826.7,104.4 920.0,89.5" /><polyline fill="none" stroke="#dc2626" stroke-width="3" stroke-dasharray="4 4" points="80.0,441.8 173.3,430.7 266.7,415.6 360.0,398.8 453.3,380.3 546.7,360.0 640.0,334.8 733.3,307.6 826.7,278.2 920.0,246.9" /><polyline fill="none" stroke="#111827" stroke-width="3" stroke-dasharray="8 4" points="80.0,385.2 173.3,366.4 266.7,342.3 360.0,315.9 453.3,287.2 546.7,256.2 640.0,218.5 733.3,178.0 826.7,134.8 920.0,115.0" />
  <text x="80.0" y="495" text-anchor="middle" font-size="12">2026</text>
<text x="173.3" y="495" text-anchor="middle" font-size="12">2027</text>
<text x="266.7" y="495" text-anchor="middle" font-size="12">2028</text>
<text x="360.0" y="495" text-anchor="middle" font-size="12">2029</text>
<text x="453.3" y="495" text-anchor="middle" font-size="12">2030</text>
<text x="546.7" y="495" text-anchor="middle" font-size="12">2031</text>
<text x="640.0" y="495" text-anchor="middle" font-size="12">2032</text>
<text x="733.3" y="495" text-anchor="middle" font-size="12">2033</text>
<text x="826.7" y="495" text-anchor="middle" font-size="12">2034</text>
<text x="920.0" y="495" text-anchor="middle" font-size="12">2035</text>
  <text x="480.0" y="528" text-anchor="middle" font-size="13">Year</text>
  <text transform="translate(20 270.0) rotate(-90)" text-anchor="middle" font-size="13">Index value</text>
  <line x1="100" x2="128" y1="55" y2="55" stroke="#2563eb" stroke-width="3" /><text x="136" y="60" font-size="13">Base</text><line x1="100" x2="128" y1="79" y2="79" stroke="#16a34a" stroke-width="3" /><text x="136" y="84" font-size="13">Upside</text><line x1="100" x2="128" y1="103" y2="103" stroke="#dc2626" stroke-width="3" /><text x="136" y="108" font-size="13">Downside</text><line x1="100" x2="128" y1="127" y2="127" stroke="#111827" stroke-width="3" /><text x="136" y="132" font-size="13">Current implied</text>
  <text x="80" y="515" font-size="11" fill="#6b7280">Generated deterministically from FLP-0.1 input table.</text>
</svg>
